<svg xmlns="http://www.w3.org/2000/svg" viewBox="0 0 1200 600" preserveAspectRatio="xMidYMid meet" role="img" aria-label="Model S placeholder">
	<defs><linearGradient id="bg" x1="0" y1="0" x2="0" y2="1"><stop offset="0" stop-color="#f6f7f8"/><stop offset="1" stop-color="#e6e7e8"/></linearGradient></defs>
	<rect width="1200" height="600" fill="url(#bg)"/>
	<g fill="#171a20">
		<path d="M180 410 C 250 360 380 320 530 318 C 700 316 820 322 920 350 C 970 364 1010 386 1040 410 L 1060 420 L 1085 425 L 1095 435 L 1095 455 L 1060 460 L 140 460 L 110 455 L 100 445 L 105 430 Z"/>
		<path d="M340 320 L 470 240 C 510 215 560 205 620 205 L 770 205 C 820 205 860 215 890 250 L 940 320 Z" fill="#23272d"/>
	</g>
	<g fill="#fff" stroke="#171a20" stroke-width="3">
		<circle cx="320" cy="455" r="60"/><circle cx="320" cy="455" r="22" fill="#171a20"/>
		<circle cx="900" cy="455" r="60"/><circle cx="900" cy="455" r="22" fill="#171a20"/>
	</g>
	<text x="600" y="555" text-anchor="middle" font-family="Inter, system-ui, sans-serif" font-size="22" font-weight="500" letter-spacing="6" fill="#5c5e62">MODEL S</text>
</svg>
